<svg width="40" height="41" viewBox="0 0 40 41" fill="none" xmlns="http://www.w3.org/2000/svg">
<g clip-path="url(#clip0_77_4710)">
<path d="M38.2603 20.0006C37.6813 19.6886 35.8492 19.0861 35.1651 18.9026C34.2707 18.6632 33.9925 19.5738 34.7444 19.9103C35.1936 20.1115 35.7902 20.2204 36.2247 20.4166C36.3112 20.4559 36.3574 20.3813 36.3279 20.5697L27.8749 23.6262C27.7757 23.792 27.7599 23.9912 27.8278 24.1708L31.5451 32.0273L23.4175 28.2771C22.926 28.2958 22.9123 28.7992 22.7353 29.1455L20.0678 36.8019C19.879 36.8314 19.9537 36.7853 19.9144 36.6989C19.4387 35.651 19.2028 34.342 18.7015 33.2833C18.5285 32.9781 18.0459 32.8604 17.81 33.1518C17.6655 33.3294 17.7088 33.5894 17.7481 33.7955C17.9476 34.8562 18.8696 37.1002 19.3001 38.1953C19.5468 38.8223 19.8112 39.4924 20.4934 38.732C21.4163 36.2289 22.2439 33.6885 23.158 31.1825C23.2386 30.9627 23.7006 29.6342 23.791 29.6116C26.8154 30.9254 29.7277 32.4964 32.7609 33.7808C33.2416 33.7464 33.4224 33.3157 33.2003 32.9114L29.1213 24.2846C29.1389 24.2032 29.769 23.9942 29.8899 23.948C32.4808 22.9521 35.7037 22.1779 38.1453 21.025C38.6357 20.7934 38.7439 20.2606 38.2613 20.0006H38.2603Z" fill="white"/>
<path d="M15.3905 24.7634C15.6165 25.1157 15.7089 25.5042 15.9114 25.8594H19.4066C18.8611 21.3763 14.3358 18.5759 10.0445 20.1488C7.65207 21.026 5.84157 23.3181 5.57422 25.8594H9.06942C9.40164 24.8723 10.0277 23.9736 10.993 23.5193C12.5685 22.7794 14.4547 23.3004 15.3905 24.7634Z" fill="white"/>
<path d="M19.8477 13.5942H23.3429C23.4893 13.398 23.5109 13.1439 23.622 12.9182C25.0865 9.93824 29.3277 10.4387 30.1485 13.5942H33.68C33.0972 8.69897 27.6745 5.90153 23.3301 8.36732C21.4223 9.4496 20.113 11.414 19.8477 13.5942Z" fill="white"/>
<path d="M4.18108 20.7506C3.97762 20.5789 3.64344 20.6603 3.66113 20.4248L12.1141 17.3693C12.2134 17.2035 12.2271 17.0033 12.1613 16.8238L8.44393 8.9672L16.6433 12.7135C17.0286 12.5781 17.1141 12.1807 17.2537 11.849L19.9213 4.19262C20.11 4.16318 20.0353 4.2093 20.0746 4.29565C20.4776 5.18266 20.6693 6.29634 21.1184 7.18336C21.6089 7.55327 22.1908 7.20494 22.0375 6.59659C21.4133 5.34849 21.1391 3.43905 20.4923 2.26257C20.1798 1.69347 19.6805 1.91817 19.4436 2.43036C18.3034 4.8932 17.5259 8.02622 16.5381 10.6196C16.4919 10.7393 16.2816 11.3692 16.201 11.3869L7.22906 7.21181C6.77693 7.27755 6.56167 7.68083 6.79069 8.08411L10.8697 16.7109C10.852 16.7943 9.49858 17.2663 9.29119 17.3419C6.78086 18.2544 4.23711 19.0806 1.72875 20.0019C1.32576 20.208 1.33165 20.781 1.72875 20.9959C1.99413 21.1392 3.20605 21.5679 3.51271 21.6386C4.24497 21.8054 4.70497 21.1941 4.18108 20.7516V20.7506Z" fill="white"/>
<path d="M23.3792 15.283H19.8477C20.4315 19.9035 25.2851 22.696 29.6088 20.8042C31.8115 19.8407 33.3911 17.6624 33.679 15.283H30.1475C29.2029 18.8026 24.3248 18.8006 23.3792 15.283Z" fill="white"/>
<path d="M15.9114 27.5491C15.6431 28.2114 15.3531 28.8276 14.8056 29.3094C13.4954 30.4623 11.4815 30.477 10.1752 29.3094C9.62869 28.8207 9.33775 28.2173 9.06942 27.5491H5.57422C5.83469 29.6744 7.12327 31.6427 8.98292 32.7034C13.3735 35.2074 18.753 32.4777 19.4066 27.5491H15.9114Z" fill="white"/>
<path d="M28.2343 13.1174C26.4228 11.1746 23.5606 13.9288 25.3181 15.7715C27.1207 17.6633 29.9348 14.9405 28.2343 13.1174Z" fill="white"/>
<path d="M12.029 24.7751C9.79387 25.1539 10.187 28.8776 12.6649 28.6431C15.2519 28.3978 14.9364 24.2826 12.029 24.7751Z" fill="white"/>
</g>
<defs>
<clipPath id="clip0_77_4710">
<rect width="37.1429" height="37.1429" fill="white" transform="translate(1.42871 1.92859)"/>
</clipPath>
</defs>
</svg>
