<svg width="28" height="28" viewBox="0 0 28 28" fill="none" xmlns="http://www.w3.org/2000/svg">
<path d="M14 4.7998C14.7388 4.7998 15.4235 5.21907 15.751 5.87207L17.5352 9.42773L21.5264 9.99805L21.6621 10.0225C22.3321 10.1667 22.8873 10.6551 23.1035 11.3057V11.3066L23.1416 11.4385C23.3088 12.1024 23.1105 12.7982 22.6055 13.2783L22.6064 13.2793L19.7197 16.042L20.4033 19.9473L20.4229 20.084C20.494 20.764 20.194 21.4275 19.626 21.834H19.625C19.0723 22.2288 18.3184 22.3047 17.6924 22.0371L17.5684 21.9785L14 20.1338L10.4316 21.9785C10.1518 22.1229 9.83944 22.2002 9.52246 22.2002C9.10961 22.2002 8.7144 22.0733 8.37988 21.8389L8.37891 21.8379C7.7727 21.4042 7.47127 20.678 7.60059 19.9512L8.2793 16.0459L5.39355 13.2793C4.85577 12.7639 4.66592 12.0056 4.89648 11.3066V11.3057L4.94531 11.1758C5.2078 10.539 5.78141 10.0955 6.47363 9.99805L10.4639 9.42773L12.249 5.87207L12.3145 5.75293C12.6621 5.16859 13.3072 4.7998 14 4.7998ZM13.9912 6.41406C13.8729 6.41581 13.7632 6.48318 13.7119 6.58301L13.7129 6.58398L11.7354 10.5205V10.5215C11.6152 10.7578 11.3857 10.9233 11.1182 10.9609L11.1191 10.9619L6.70312 11.5957L6.70215 11.5947C6.58075 11.6132 6.48518 11.6942 6.44824 11.8057V11.8066C6.41254 11.912 6.44166 12.0342 6.52441 12.1172L9.71875 15.1777L9.78613 15.251C9.93168 15.43 9.99322 15.6657 9.95508 15.8955V15.8965L9.19922 20.2236C9.18437 20.3095 9.20716 20.3952 9.26074 20.4619L9.32422 20.5215L9.3252 20.5225L9.40137 20.5605C9.48331 20.5886 9.57981 20.5852 9.65625 20.5449L9.65723 20.5439L13.6064 18.502H13.6074L13.6992 18.4609C13.9166 18.3805 14.1592 18.3945 14.3682 18.502L18.3174 20.5439L18.3203 20.5449L18.4023 20.5742C18.4874 20.5913 18.5794 20.5726 18.6494 20.5225L18.6514 20.5215L18.7148 20.4619C18.7505 20.4174 18.7722 20.3644 18.7783 20.3086L18.7754 20.2236L18.0205 15.8965V15.8955C17.9766 15.6312 18.0648 15.3666 18.2549 15.1797L18.2568 15.1777L21.4502 12.1172H21.4512L21.5039 12.0508C21.5458 11.9791 21.5566 11.8916 21.5312 11.8057L21.4932 11.7266C21.4453 11.6558 21.37 11.6081 21.2803 11.5947V11.5957L16.8643 10.9619V10.9609C16.5971 10.9231 16.368 10.7575 16.248 10.5215V10.5205L14.2715 6.58398C14.2202 6.48346 14.1102 6.41542 13.9912 6.41406Z" fill="#D5048D" stroke="#D5048D" stroke-width="0.4"/>
</svg>
