<svg width="66" height="64" viewBox="0 0 66 64" fill="none" xmlns="http://www.w3.org/2000/svg">
<path d="M65.2153 32C65.2153 14.3269 50.6163 1.89719e-06 32.6076 2.57942e-06C14.5989 3.26164e-06 -2.50532e-06 14.3269 -1.61396e-06 32C-7.22594e-07 49.6731 14.5989 64 32.6076 64C50.6163 64 65.2153 49.6731 65.2153 32Z" fill="white"/>
<path d="M48.4516 22.9636C48.5461 22.8343 48.4066 22.6675 48.2554 22.725C47.1815 23.1335 46.059 23.4091 44.9141 23.545C46.1889 22.7976 47.1727 21.6598 47.7182 20.3128C47.7737 20.1756 47.621 20.0531 47.4893 20.1245C46.3045 20.7666 45.0267 21.229 43.6993 21.4953C43.6437 21.5065 43.5865 21.4879 43.5475 21.4475C42.5514 20.416 41.2401 19.7292 39.8107 19.4919C38.3513 19.2496 36.8511 19.4895 35.5456 20.1741C34.2401 20.8586 33.203 21.949 32.597 23.2743C32.0208 24.5344 31.8653 25.939 32.1495 27.288C32.1715 27.3927 32.0881 27.4915 31.9794 27.4849C29.3967 27.3275 26.8734 26.6534 24.5648 25.5031C22.262 24.3558 20.2228 22.7597 18.5715 20.8133C18.4982 20.7269 18.3593 20.7381 18.3059 20.8375C17.792 21.7944 17.523 22.861 17.5237 23.945C17.5216 25.024 17.7914 26.0867 18.3092 27.0387C18.8269 27.9906 19.5764 28.8021 20.491 29.401C19.5211 29.3751 18.57 29.1397 17.7051 28.7131C17.5936 28.6581 17.4599 28.7364 17.4657 28.8587C17.5332 30.2815 18.0654 31.7098 18.9867 32.8057C19.9671 33.9719 21.3278 34.77 22.8388 35.065C22.2571 35.2387 21.6533 35.3302 21.0453 35.337C20.7145 35.3332 20.3842 35.3092 20.0566 35.2652C19.9351 35.2489 19.8359 35.3622 19.8784 35.4751C20.3291 36.671 21.1252 37.7146 22.172 38.4764C23.2912 39.2908 24.6413 39.7426 26.0343 39.769C23.682 41.5854 20.7778 42.5767 17.7846 42.585C17.477 42.5859 17.1696 42.5762 16.8629 42.5557C16.6901 42.5441 16.6106 42.7701 16.7595 42.8568C19.6759 44.5553 23.0093 45.453 26.4093 45.449C28.9196 45.4745 31.4099 45.009 33.7348 44.0795C36.0597 43.15 38.1725 41.7752 39.9499 40.0354C41.7273 38.2955 43.1337 36.2256 44.0868 33.9464C45.0399 31.6672 45.5207 29.2245 45.5011 26.761L45.5011 25.9932C45.5011 25.9427 45.5254 25.8952 45.5665 25.8648C46.6723 25.0453 47.6449 24.067 48.4516 22.9636Z" fill="#D5048D"/>
</svg>
